<?xml version="1.0" encoding="utf-8"?>
<!-- Generator: Adobe Illustrator 21.0.2, SVG Export Plug-In . SVG Version: 6.00 Build 0)  -->
<svg version="1.1" id="Слой_1" xmlns="http://www.w3.org/2000/svg" xmlns:xlink="http://www.w3.org/1999/xlink" x="0px" y="0px"
	 viewBox="0 0 111.6 50.7" style="enable-background:new 0 0 111.6 50.7;" xml:space="preserve">
<style type="text/css">
	.st0{fill:#FFFFFF;}
</style>
<g>
	<path class="st0" d="M28.1,7.5V5.1c0-2.8-2.3-5.1-5.2-5.1s-5.2,2.3-5.2,5.1v2.4c1.7-0.5,3.4-0.7,5.2-0.7C24.7,6.8,26.5,7,28.1,7.5z
		"/>
	<path class="st0" d="M9.9,12l-2.1-1.2c-2.5-1.4-5.7-0.6-7.1,1.9l0,0c-1.4,2.5-0.6,5.6,1.9,7l2.1,1.2C5.6,17.4,7.4,14.4,9.9,12z"/>
	<path class="st0" d="M4.7,29.8L2.6,31c-2.5,1.4-3.3,4.6-1.9,7l0,0c1.4,2.5,4.6,3.3,7.1,1.9l2.1-1.2C7.4,36.3,5.6,33.2,4.7,29.8z"/>
	<path class="st0" d="M17.8,43.1v2.5c0,2.8,2.3,5.1,5.2,5.1l0,0c2.9,0,5.2-2.3,5.2-5.1v-2.5c-1.7,0.5-3.4,0.7-5.3,0.7
		C21.1,43.8,19.4,43.6,17.8,43.1z"/>
	<path class="st0" d="M43.5,31.1l-2.3-1.3c-0.9,3.4-2.7,6.5-5.2,8.9l2.3,1.3c2.5,1.4,5.7,0.6,7.1-1.9v0
		C46.8,35.6,45.9,32.5,43.5,31.1z"/>
	<path class="st0" d="M41.2,21l2.3-1.3c2.5-1.4,3.3-4.6,1.9-7l0,0c-1.4-2.5-4.6-3.3-7.1-1.9l-2.3,1.3C38.5,14.5,40.4,17.5,41.2,21z"
		/>
	<path class="st0" d="M33.5,31.3L33.5,31.3c1.4-2.5,4.6-3.3,7.1-1.9l0.6,0.3c0.4-1.4,0.6-2.9,0.6-4.5c0-1.5-0.2-2.9-0.5-4.3
		l-0.6,0.3c-2.5,1.4-5.7,0.6-7.1-1.9c-1.4-2.5-0.6-5.6,1.9-7l0.6-0.4c-2.2-2.1-4.9-3.7-7.9-4.6v0.9c0,2.8-2.3,5.1-5.2,5.1
		s-5.2-2.3-5.2-5.1V7.5c-3,0.8-5.7,2.4-7.8,4.5l0.8,0.5c2.5,1.4,3.3,4.6,1.9,7c-1.4,2.5-4.6,3.3-7.1,1.9l-0.8-0.5
		c-0.4,1.4-0.6,2.9-0.6,4.5s0.2,3,0.6,4.5l0.8-0.5c2.5-1.4,5.7-0.6,7.1,1.9c1.4,2.5,0.6,5.6-1.9,7l-0.8,0.5c2.2,2.1,4.9,3.6,7.9,4.5
		v-0.8c0-2.8,2.3-5.1,5.2-5.1l0,0c2.9,0,5.2,2.3,5.2,5.1v0.8c3-0.8,5.6-2.4,7.8-4.4l-0.6-0.3C32.9,36.9,32,33.8,33.5,31.3z"/>
	<path class="st0" d="M69.7,33.1h-3.1v-6.5h-6.1v6.5h-3.1V18h3.1v6.1h6.1V18h3.1V33.1z"/>
	<path class="st0" d="M81.4,26.5h-6v4h7v2.5H72.4V18h10.1v2.5h-7v3.6h6V26.5z"/>
	<path class="st0" d="M87.4,30.6H94v2.5h-9.7V18h3.1V30.6z"/>
	<path class="st0" d="M99.8,18l3.9,10.9l3.9-10.9h4.1v15.1h-3.1V29l0.3-7.1l-4.1,11.2h-2.1l-4.1-11.2l0.3,7.1v4.1h-3.1V18H99.8z"/>
</g>
</svg>
